<svg width="431" height="334" viewBox="0 0 431 334" fill="none" xmlns="http://www.w3.org/2000/svg">
<g clip-path="url(#clip0)">
<path opacity="0.18" d="M27.2991 287.195C-8.53611 259.886 0.356479 194.668 2.68913 173.661C3.98278 162.097 6.68213 150.532 12.2438 140.629C28.2668 112.076 62.3907 104.863 87.6118 86.1607C115.675 65.4646 133.542 29.7635 163.744 13.1508C180.368 4.00849 199.304 1.53266 217.853 0.439445C251.529 -1.55407 288.383 1.80061 313.41 26.816C331.511 44.9078 340.536 71.6059 356.62 91.8948C370.799 109.794 389.949 122.065 404.791 139.3C426.834 164.873 438.1 204.003 426.182 236.778C415.11 267.142 398.16 287.067 389.369 290.068C361.153 299.714 299.486 300.882 269.976 303.09C238.348 305.448 209.877 300.282 178.188 300.389C129.294 300.56 62.5842 303.401 27.3398 287.152" fill="#FC2F2F"/>
<path d="M301.35 190.306C301.35 190.306 305.933 202.449 281.863 209.973C257.793 217.497 244.582 247.261 245.101 272.297V288.439C245.101 288.439 319.95 317.377 383.42 290.668C383.42 290.668 389.532 223.049 346.138 207.187C346.138 207.187 337.144 204.4 339.782 193.253C339.782 193.253 360.42 181.003 356.712 148.721C353.004 116.439 341.218 106.417 329.036 105.689C279.836 102.741 279.663 170.639 301.35 190.306Z" fill="#F7AF87"/>
<path d="M389.369 290.111C389.369 290.111 390.286 242.952 382.839 226.94C376.555 213.403 360.338 209.93 346.648 205.504C345.887 205.206 345.073 205.088 344.264 205.161C343.264 205.431 342.341 205.954 341.575 206.683C334.132 212.576 324.89 215.384 315.607 214.572C306.324 213.76 297.65 209.384 291.235 202.278C274.814 207.54 261.97 207.433 253.352 223.06C244.734 238.686 240.466 269.2 242.086 287.185C242.045 287.195 316.028 318.738 389.369 290.111Z" fill="#FC2F2F"/>
<path d="M259.433 223.499C259.433 223.499 271.86 210.091 276.862 210.027C281.863 209.962 312.514 301.439 312.514 301.439L266.767 299.146L259.433 223.499Z" fill="url(#paint0_linear)"/>
<path d="M286.233 110.683C289.095 100.673 296.205 91.3911 305.893 89.0653C308.785 88.3686 311.77 88.315 314.683 87.7256C316.456 87.3611 318.187 86.8145 319.939 86.3537C327.123 84.3602 334.683 84.4343 341.83 86.568C349.004 88.7568 355.155 93.6629 359.095 100.34C362.681 106.771 363.689 114.445 363.17 121.862C362.65 129.279 358.566 142.419 356.64 149.567C353.218 144.852 355.5 131.476 350.712 128.325C347.31 126.085 342.93 127.103 338.967 127.81C329.778 129.472 320.36 129.107 311.312 126.738C307.023 125.602 302.623 124.016 298.294 124.938C294.535 125.731 293.201 128.764 291.163 132.13C289.717 134.455 288.851 146.063 287.618 148.324C284.746 147.252 284.186 128.861 284.216 126.213C284.194 120.963 284.872 115.735 286.233 110.683Z" fill="#404040"/>
<path d="M359.309 146.481C359.765 146.024 360.305 145.67 360.895 145.44C361.485 145.21 362.113 145.108 362.742 145.141C363.222 145.25 363.673 145.472 364.061 145.789C364.449 146.106 364.764 146.511 364.983 146.974C365.416 147.902 365.653 148.919 365.676 149.953C365.909 154.087 364.626 158.158 362.09 161.325C360.695 163.04 358.617 164.54 356.528 164.015C356.11 163.937 355.725 163.723 355.428 163.404C355.2 163.104 355.034 162.757 354.939 162.386C354.127 159.143 354.071 155.742 354.776 152.472C355.011 151.046 355.143 149.653 356.284 148.731C357.231 147.96 358.331 147.252 359.309 146.481Z" fill="#F7AF87"/>
<path d="M151.011 195.536C152.62 195.258 154.372 194.882 155.422 193.575C156.188 192.413 156.623 191.044 156.675 189.631C158.64 174.079 164.11 128.26 149.544 102.002C147.507 98.2505 142.251 97.3823 139.419 94.4992C132.778 87.6398 124.272 79.3228 112.517 79.4085C84.3421 79.6121 71.5176 94.2849 59.9766 121.337C52.9684 137.746 50.809 187.444 56.6151 192.257C62.7269 197.326 78.8211 196.919 86.3997 197.712C107.935 199.947 129.655 199.215 151.011 195.536Z" fill="#404040"/>
<path d="M139.042 119.193C139.578 118.42 140.275 117.786 141.079 117.339C143.453 116.117 146.325 117.553 148.21 119.482C150.587 122.121 152.242 125.388 152.997 128.936C153.721 132.456 154.063 136.052 154.016 139.653C154.077 144.076 153.948 148.499 153.629 152.922C153.303 159.428 152.011 165.84 149.799 171.925C147.426 177.937 143.545 183.436 138.227 186.748C134.275 171.871 133.908 156.245 133.572 140.811C133.511 138.357 133.46 135.913 133.511 133.469C133.511 132.505 133.256 130.64 133.694 129.782C134.132 128.925 134.917 129.096 135.63 128.528C136.761 127.639 136.567 125.988 136.822 124.638C137.215 122.687 137.97 120.837 139.042 119.193Z" fill="url(#paint1_linear)"/>
<path d="M64.428 150.896C63.391 151.046 62.4028 151.454 61.5453 152.086C60.8147 152.776 60.2464 153.634 59.885 154.594C58.2773 158.312 57.5313 162.379 57.7084 166.459C57.8855 170.54 58.9806 174.518 60.9036 178.066C60.9036 178.066 65.7013 172.654 66.1189 172.096C67.7713 169.839 69.2367 167.436 70.499 164.915C71.6501 162.611 77.6905 151.925 74.6448 150.607C72.7196 149.782 66.7505 150.382 64.428 150.896Z" fill="url(#paint2_linear)"/>
<path d="M71.324 190.306C69.0932 184.872 69.5414 178.666 70.3053 172.804C70.9878 167.702 71.9759 162.45 74.8178 158.26C77.464 154.582 81.1027 151.829 85.2587 150.361C89.3904 148.918 93.6931 148.088 98.0425 147.896C104.291 147.445 110.564 147.553 116.795 148.217C121.181 148.53 125.485 149.617 129.528 151.432C135.029 154.263 139.412 159.035 141.915 164.915C144.381 170.793 145.218 177.283 144.329 183.64C144.128 186.375 143.196 188.994 141.64 191.196C139.816 193.161 137.516 194.562 134.988 195.247C125.82 198.334 116.103 198.098 106.609 197.701C98.7351 197.38 90.7797 197.851 83.0279 196.244C78.4849 195.311 73.4019 195.386 71.324 190.306Z" fill="url(#paint3_linear)"/>
<path d="M168.684 290.657C105.173 317.377 30.3651 288.428 30.3651 288.428V272.351C29.7947 247.25 43.0368 217.476 67.1272 209.973C91.2177 202.471 89.537 193.693 89.537 193.693C67.8606 174.036 65.09 102.752 114.32 105.71C126.544 106.439 138.309 116.428 141.996 148.753C145.683 181.078 121.624 195.193 121.624 195.193C121.299 196.78 121.415 198.432 121.957 199.952C122.498 201.472 123.443 202.796 124.679 203.768C126.674 205.385 128.962 206.556 131.402 207.208C174.745 223.038 168.684 290.657 168.684 290.657Z" fill="#F7AF87"/>
<path d="M87.561 152.847C97.1564 152.847 106.854 151.4 115.644 147.37C124.435 143.34 132.268 136.535 136.75 127.628C138.263 124.833 139.138 121.707 139.307 118.496C139.419 112.43 135.762 106.76 130.903 103.491C126.045 100.222 120.167 99.0435 114.412 98.7863C102.015 98.2397 89.2111 101.916 79.7787 110.394C75.8701 113.885 72.6797 118.18 70.4028 123.014C68.1259 127.847 66.8103 133.119 66.5366 138.507C66.0782 150.275 78.4137 152.836 87.561 152.847Z" fill="#404040"/>
<path d="M174.582 290.11C174.582 290.11 169.743 251.623 162.297 235.578C156.012 222.041 145.541 209.93 131.851 205.515C131.09 205.215 130.276 205.098 129.467 205.172C128.469 205.44 127.549 205.962 126.788 206.693C119.345 212.587 110.103 215.395 100.82 214.582C91.5374 213.77 82.8627 209.394 76.4476 202.288C60.0401 207.635 46.164 219.318 37.6075 234.989C28.9899 250.604 25.7201 269.211 27.299 287.195C27.299 287.195 101.231 318.738 174.582 290.11Z" fill="#FC2F2F"/>
<path d="M121.776 300.292C121.776 300.292 93.5911 303.583 87.8665 300.571C87.8665 300.571 102.127 219.919 136.068 208.312C136.068 208.312 150.777 210.884 162.297 235.578C165.649 242.748 121.776 300.292 121.776 300.292Z" fill="url(#paint4_linear)"/>
<path d="M121.858 317.194V268.364C121.858 268.364 132.971 224.421 171.587 219.384C210.203 214.346 251.987 221.055 251.987 221.055C251.987 221.055 292.732 226.618 300.117 279.489V321.235C300.117 321.235 197.501 352.445 121.858 317.194Z" fill="#FC2F2F"/>
<path d="M172.993 162.686C171.343 161.614 169.316 160.875 167.502 161.614C166.752 161.924 166.079 162.412 165.536 163.04C162.674 166.255 162.837 171.26 163.744 175.548C164.248 177.954 164.929 180.315 165.781 182.611C166.136 183.674 166.648 184.673 167.299 185.569C169.336 188.109 172.901 188.452 176.039 188.066C177.892 187.841 179.96 187.251 180.806 185.494C181.097 184.818 181.263 184.091 181.295 183.35C182.14 174.679 180.205 167.273 172.993 162.686Z" fill="#F7AF87"/>
<path d="M250.673 166.201C252.985 164.508 255.99 163.2 258.588 164.379C259.604 164.92 260.468 165.731 261.095 166.731C261.722 167.731 262.09 168.886 262.163 170.081C262.281 172.473 261.884 174.862 261.002 177.069C260.107 179.905 258.707 182.535 256.876 184.818C255.018 187.107 252.39 188.552 249.542 188.848C248.126 188.964 246.708 188.653 245.454 187.95C244.2 187.248 243.162 186.184 242.463 184.883C241.771 183.144 241.452 181.267 241.526 179.384C241.399 177.937 241.555 176.478 241.984 175.097C243.105 172.15 248.3 167.938 250.673 166.201Z" fill="#F7AF87"/>
<path d="M187.182 224.11C186.278 225.746 185.748 227.58 185.634 229.469C185.701 230.579 185.956 231.668 186.388 232.684C190.116 242.33 197.837 247.196 205.283 249.447C207.518 250.18 209.839 250.58 212.179 250.637C219.208 250.637 226.155 245.556 230.382 237.357C230.629 236.937 230.786 236.465 230.841 235.975C230.817 235.337 230.646 234.715 230.341 234.163C227.713 228.204 228.192 220.519 228.885 213.521C228.99 212.942 228.955 212.345 228.783 211.784C228.679 211.572 228.535 211.383 228.36 211.23C228.185 211.078 227.982 210.963 227.764 210.895C223.211 208.88 218.322 210.134 213.504 209.941C206.883 209.684 200.465 206.479 193.834 206.468C190.88 206.468 190.656 207.626 190.238 211.516C189.871 215.86 188.839 220.113 187.182 224.11Z" fill="#F7AF87"/>
<path d="M187.264 204.057C187.264 204.057 191.084 219.812 200.343 230.133C209.602 240.455 231.523 238.483 228.936 229.265C226.756 221.538 230.84 204.057 230.84 204.057H187.264Z" fill="url(#paint5_linear)"/>
<path d="M286.172 145.891C285.154 144.819 283.962 143.748 282.525 143.651C281.964 143.652 281.41 143.786 280.904 144.042C280.398 144.298 279.953 144.67 279.602 145.13C278.901 146.065 278.435 147.171 278.247 148.346C277.765 151.192 277.979 154.12 278.869 156.856C279.887 160.2 281.711 163.586 284.807 164.862C285.34 165.132 285.93 165.254 286.521 165.214C287.112 165.175 287.683 164.976 288.179 164.637C288.845 163.934 289.259 163.01 289.35 162.022C290.562 155.709 290.756 150.586 286.172 145.891Z" fill="#F7AF87"/>
<path d="M248.279 174.347C245.356 200.188 231.706 221.506 211.252 221.506C190.798 221.506 174.225 200.402 174.225 174.347C174.225 148.292 187.376 118.914 207.84 118.914C228.304 118.914 254.259 121.53 248.279 174.347Z" fill="#F7AF87"/>
<path d="M168.643 165.826C167.285 155.602 166.392 145.32 165.964 134.98C165.781 130.425 165.852 125.334 168.755 121.98C169.52 121.245 170.204 120.422 170.793 119.525C171.275 118.375 171.542 117.138 171.577 115.881C172.677 106.117 179.39 97.9611 187.091 92.3985C195.529 86.3187 205.313 82.6276 215.5 81.6807C218.776 81.3059 222.086 81.4541 225.32 82.1201C228.57 82.9548 231.691 84.272 234.589 86.0321C239.193 88.658 243.624 91.8305 246.894 96.1283C250.164 100.426 252.17 106.01 251.478 111.466C253.722 112.476 255.738 113.974 257.394 115.862C259.049 117.749 260.307 119.984 261.083 122.419C262.584 127.471 263.063 132.798 262.489 138.056C261.47 150.575 256.948 163.426 247.454 171.035C247.607 162.283 245.763 153.62 242.076 145.773C240.666 143.099 239.384 140.352 238.236 137.542C237.154 134.534 236.629 131.336 236.687 128.121C232.715 130.35 230.382 134.916 226.634 137.553C224.236 139.081 221.579 140.104 218.811 140.564C209.901 142.416 200.705 142.078 191.939 139.578C188.476 138.592 184.065 137.563 181.885 140.564C180.531 142.419 180.765 144.991 180.582 147.327C180.28 149.874 179.695 152.374 178.84 154.776L173.441 171.925C171.608 170.285 168.99 168.345 168.643 165.826Z" fill="#404040"/>
<path d="M124.842 204.228C107.719 215.772 95.7913 196.201 95.2412 195.225C99.2626 197.593 103.794 198.836 108.402 198.836C113.01 198.836 117.541 197.593 121.562 195.225C121.238 196.813 121.354 198.464 121.895 199.984C122.437 201.504 123.382 202.828 124.618 203.8L124.842 204.228Z" fill="url(#paint6_linear)"/>
<path d="M286.019 157.499C285.306 156.523 284.553 155.355 284.899 154.155C285.245 152.954 286.447 152.333 286.457 151.175C286.434 150.846 286.345 150.526 286.196 150.236C286.046 149.946 285.841 149.693 285.592 149.492C285.006 148.925 284.256 148.581 283.463 148.517C283.19 148.496 282.917 148.559 282.678 148.699C282.408 148.904 282.205 149.193 282.098 149.525C280.906 152.333 281.303 155.634 282.352 158.506C282.529 159.052 282.802 159.557 283.157 159.996C283.659 160.479 284.269 160.821 284.929 160.993C285.948 161.336 287.15 161.346 287.384 160.007C287.557 159.042 286.488 158.185 286.019 157.499Z" fill="url(#paint7_linear)"/>
<path d="M358.556 157.713C359.269 156.738 360.022 155.569 359.676 154.369C359.33 153.169 358.128 152.547 358.107 151.39C358.133 151.06 358.224 150.74 358.375 150.45C358.526 150.16 358.733 149.907 358.983 149.707C359.567 149.136 360.318 148.792 361.112 148.732C361.382 148.71 361.651 148.773 361.886 148.914C362.159 149.118 362.366 149.407 362.477 149.739C363.659 152.547 363.262 155.848 362.212 158.721C362.055 159.35 361.729 159.918 361.274 160.359C360.819 160.799 360.254 161.094 359.645 161.207C358.627 161.55 357.425 161.561 357.18 160.221C357.017 159.278 358.046 158.399 358.556 157.713Z" fill="url(#paint8_linear)"/>
<path d="M248.34 178.066C249.468 178.202 250.605 177.914 251.549 177.252C252.043 177.006 252.473 176.639 252.802 176.18C253.637 174.797 252.721 172.879 253.321 171.378C253.618 170.832 254.031 170.366 254.527 170.016C255.024 169.667 255.591 169.443 256.184 169.363C256.6 169.218 257.051 169.218 257.467 169.363C257.778 169.583 258.028 169.885 258.193 170.238C258.357 170.592 258.43 170.985 258.404 171.378C258.612 174.775 257.577 178.126 255.512 180.746C254.478 182.034 253.206 183.087 251.774 183.843C250.342 184.598 248.779 185.04 247.179 185.14C247.016 185.164 246.85 185.138 246.7 185.065C246.537 184.949 246.42 184.773 246.374 184.572C246.051 183.603 245.975 182.561 246.154 181.551C246.332 180.541 246.76 179.598 247.393 178.816" fill="url(#paint9_linear)"/>
<path d="M168.491 173.64C168.959 174.465 169.906 174.787 170.691 175.269C171.476 175.766 172.128 176.464 172.588 177.298C173.047 178.132 173.299 179.075 173.319 180.038C173.378 180.674 173.242 181.313 172.93 181.861C172.619 182.409 172.148 182.837 171.587 183.082C170.457 183.414 169.326 182.568 168.531 181.657C167.505 180.454 166.714 179.05 166.204 177.525C165.694 176.001 165.474 174.386 165.557 172.772C165.618 171.7 166.056 168.999 167.686 169.556C168.99 170.039 167.859 172.525 168.491 173.64Z" fill="url(#paint10_linear)"/>
<path d="M172.168 140.875C171.078 142.465 170.432 144.343 170.304 146.298C170.098 149.123 170.194 151.963 170.589 154.766L172.127 169.331C174.042 162.365 178.565 156.287 179.594 149.117C179.92 146.834 179.858 144.455 180.551 142.247C180.857 141.283 182.67 138.903 181.998 137.96C181.325 137.017 177.465 137.767 176.456 138.067C174.785 138.513 173.286 139.494 172.168 140.875Z" fill="url(#paint11_linear)"/>
<path d="M248.228 116.556C248.383 116.464 248.561 116.426 248.738 116.449C248.962 116.503 249.094 116.728 249.216 116.942C251.559 121.154 253.943 125.452 254.972 130.222C255.506 132.859 255.721 135.556 255.613 138.249C255.351 147.309 252.687 156.111 247.923 163.661C246.965 160.328 247.067 156.748 246.303 153.351C245.284 148.742 242.728 144.702 240.497 140.586C238.46 136.835 234.905 130.5 237.492 126.406C240.062 122.074 243.8 118.646 248.228 116.556Z" fill="url(#paint12_linear)"/>
<path d="M301.35 190.306C301.35 190.306 307.146 197.744 319.756 198.141C333.365 198.569 339.782 193.275 339.782 193.275C339.782 193.275 333.783 207.208 318.799 210.316C309.315 212.31 298.65 208.023 296.745 202.814C296.745 202.867 302.959 196.79 301.35 190.306Z" fill="url(#paint13_linear)"/>
<path d="M187.539 220.059C187.539 220.059 191.216 238.536 204.285 242.834C217.354 247.132 228.386 233.381 228.793 224.356C229.201 215.332 231.248 217.926 231.248 217.926L234.518 220.069V254.023L209.602 250.144L185.094 257.453C185.094 257.453 178.555 226.5 182.232 217.904" fill="#FC2F2F"/>
</g>
<defs>
<linearGradient id="paint0_linear" x1="219.686" y1="226.329" x2="446.811" y2="337.351" gradientUnits="userSpaceOnUse">
<stop stop-opacity="0"/>
<stop offset="0.99"/>
</linearGradient>
<linearGradient id="paint1_linear" x1="130.537" y1="160.596" x2="166.457" y2="130.822" gradientUnits="userSpaceOnUse">
<stop stop-opacity="0"/>
<stop offset="0.6" stop-opacity="0.36"/>
<stop offset="0.99"/>
</linearGradient>
<linearGradient id="paint2_linear" x1="1211.48" y1="5792.93" x2="1337.28" y2="4747.63" gradientUnits="userSpaceOnUse">
<stop stop-opacity="0"/>
<stop offset="0.99"/>
</linearGradient>
<linearGradient id="paint3_linear" x1="8061.65" y1="9135.44" x2="8021.15" y2="11859.8" gradientUnits="userSpaceOnUse">
<stop stop-opacity="0"/>
<stop offset="0.99"/>
</linearGradient>
<linearGradient id="paint4_linear" x1="6336.75" y1="24602.6" x2="16916.5" y2="28943.4" gradientUnits="userSpaceOnUse">
<stop stop-opacity="0"/>
<stop offset="0.99"/>
</linearGradient>
<linearGradient id="paint5_linear" x1="8554.43" y1="8775.21" x2="9746.5" y2="6543.19" gradientUnits="userSpaceOnUse">
<stop stop-opacity="0"/>
<stop offset="0.99"/>
</linearGradient>
<linearGradient id="paint6_linear" x1="3218.76" y1="3216.63" x2="3263.64" y2="2727.78" gradientUnits="userSpaceOnUse">
<stop stop-opacity="0"/>
<stop offset="0.99"/>
</linearGradient>
<linearGradient id="paint7_linear" x1="1942.03" y1="2453.2" x2="2051.19" y2="2455.79" gradientUnits="userSpaceOnUse">
<stop stop-opacity="0"/>
<stop offset="0.99"/>
</linearGradient>
<linearGradient id="paint8_linear" x1="9356.57" y1="2455.97" x2="9247.4" y2="2458.56" gradientUnits="userSpaceOnUse">
<stop stop-opacity="0"/>
<stop offset="0.99"/>
</linearGradient>
<linearGradient id="paint9_linear" x1="3419.14" y1="3453.37" x2="3049.38" y2="3325.23" gradientUnits="userSpaceOnUse">
<stop stop-opacity="0"/>
<stop offset="0.99"/>
</linearGradient>
<linearGradient id="paint10_linear" x1="1434.59" y1="2961.54" x2="1578.42" y2="2920.3" gradientUnits="userSpaceOnUse">
<stop stop-opacity="0"/>
<stop offset="0.99"/>
</linearGradient>
<linearGradient id="paint11_linear" x1="2291.34" y1="6302.91" x2="1823.38" y2="5541.96" gradientUnits="userSpaceOnUse">
<stop stop-opacity="0"/>
<stop offset="0.6" stop-opacity="0.36"/>
<stop offset="0.99"/>
</linearGradient>
<linearGradient id="paint12_linear" x1="5173.66" y1="7211.04" x2="4151.42" y2="7672.82" gradientUnits="userSpaceOnUse">
<stop stop-opacity="0"/>
<stop offset="0.6" stop-opacity="0.36"/>
<stop offset="0.99"/>
</linearGradient>
<linearGradient id="paint13_linear" x1="14015.2" y1="5267.24" x2="13828.4" y2="3496.19" gradientUnits="userSpaceOnUse">
<stop stop-opacity="0"/>
<stop offset="0.99"/>
</linearGradient>
<clipPath id="clip0">
<rect width="431" height="334" fill="white"/>
</clipPath>
</defs>
</svg>
