<svg width="527" height="397" viewBox="0 0 527 397" fill="none" xmlns="http://www.w3.org/2000/svg">
<g clip-path="url(#clip0)">
<path opacity="0.18" d="M271.362 10.2499C287.727 15.394 303.315 22.9563 317.66 32.7107C332.481 42.8887 342.453 57.2187 356.013 68.6077C382.518 90.7225 415.611 105.571 447.335 117.076C459.95 121.66 472.867 126.072 483.811 134.116C500.605 146.456 511.207 166.25 517.85 186.635C532.479 231.369 529.959 283.009 507.481 324.053C485.565 363.928 442.582 394.434 397.982 393.252C341.59 391.81 284.704 396.135 228.133 396.135C188.725 397.115 149.166 398.081 109.991 393.439C93.6227 391.493 77.1171 388.494 62.269 380.94C34.4218 366.74 10.7524 341.77 2.91742 309.679C-0.194824 296.643 -0.793396 283.082 1.15692 269.798C3.10724 256.513 7.56696 243.775 14.2727 232.335C22.5734 218.322 34.189 206.501 40.7638 191.508C49.5987 171.325 48.2564 148.143 50.8452 126.115C54.3546 96.7771 65.0192 68.895 81.8017 45.181C91.9242 30.9808 104.594 18.0925 120.196 11.0717C130.949 6.24214 142.674 4.368 154.289 2.94078C191.738 -1.61482 230.215 -1.71573 266.609 8.80827C268.171 9.2696 269.76 9.74534 271.362 10.2499Z" fill="#FC2F2F"/>
<path d="M197.752 312.779H289.539V363.438H197.752V312.779Z" fill="#FC2F2F"/>
<path d="M197.752 312.779H289.539V363.438H197.752V312.779Z" fill="url(#paint0_linear)"/>
<path d="M92.1161 142.06V285.878C92.1071 289.86 92.8445 293.804 94.286 297.486C95.7275 301.167 97.8449 304.513 100.517 307.332C103.189 310.151 106.363 312.387 109.857 313.913C113.352 315.439 117.098 316.225 120.881 316.225H375.272C379.055 316.225 382.801 315.439 386.296 313.913C389.79 312.387 392.964 310.151 395.636 307.332C398.308 304.513 400.426 301.167 401.867 297.486C403.309 293.804 404.046 289.86 404.037 285.878V142.06C404.037 134.03 401.006 126.33 395.612 120.652C390.218 114.975 382.901 111.785 375.272 111.785H120.936C117.154 111.778 113.407 112.555 109.911 114.073C106.415 115.591 103.237 117.82 100.561 120.632C97.8836 123.444 95.7599 126.784 94.3109 130.461C92.8619 134.138 92.1161 138.079 92.1161 142.06Z" fill="white"/>
<path d="M92.1161 142.06V285.878C92.1071 289.86 92.8445 293.804 94.286 297.486C95.7275 301.167 97.8449 304.513 100.517 307.332C103.189 310.151 106.363 312.387 109.857 313.913C113.352 315.439 117.098 316.225 120.881 316.225H375.272C379.055 316.225 382.801 315.439 386.296 313.913C389.79 312.387 392.964 310.151 395.636 307.332C398.308 304.513 400.426 301.167 401.867 297.486C403.309 293.804 404.046 289.86 404.037 285.878V142.06C404.037 134.03 401.006 126.33 395.612 120.652C390.218 114.975 382.901 111.785 375.272 111.785H120.936C117.154 111.778 113.407 112.555 109.911 114.073C106.415 115.591 103.237 117.82 100.561 120.632C97.8836 123.444 95.7599 126.784 94.3109 130.461C92.8619 134.138 92.1161 138.079 92.1161 142.06Z" fill="url(#paint1_linear)"/>
<path d="M92.1161 275.787V285.878C92.1071 289.86 92.8445 293.804 94.286 297.486C95.7275 301.167 97.8449 304.513 100.517 307.332C103.189 310.151 106.363 312.387 109.857 313.913C113.352 315.439 117.098 316.225 120.881 316.225H375.272C379.055 316.225 382.801 315.439 386.296 313.913C389.79 312.387 392.964 310.151 395.636 307.332C398.308 304.513 400.426 301.167 401.867 297.486C403.309 293.804 404.046 289.86 404.037 285.878V275.787H92.1161Z" fill="#FC2F2F"/>
<path d="M105.115 201.816C105.115 201.816 113.676 231.37 111.101 237.785C108.526 244.2 80.9663 272.009 80.9663 272.009L73.8573 265.796L94.6639 234.339C94.6639 234.339 86.7467 201.6 93.39 192.791C100.033 183.983 105.115 201.816 105.115 201.816Z" fill="#282328"/>
<path d="M92.7462 187.717C87.7862 191.63 83.8625 196.817 81.3499 202.782C77.2406 212.599 83.7196 235.795 83.7196 235.795L56.0642 251.38L59.5845 261.471C59.5845 261.471 93.0613 248.496 96.8418 243.724C100.622 238.953 105.307 205.838 105.307 205.838L92.7462 187.717Z" fill="#473F47"/>
<path d="M134.51 155.034L145.66 150.479C146.542 150.077 147.459 149.767 148.399 149.556C149.372 149.383 150.358 149.426 151.33 149.34C153.748 148.878 156.119 148.178 158.412 147.25C159.383 147.002 160.308 146.588 161.152 146.024C161.985 145.461 162.582 144.584 162.823 143.573C162.924 142.667 162.728 141.751 162.267 140.978C161.806 140.204 161.108 139.62 160.289 139.32C158.616 138.787 156.812 138.947 155.248 139.767C153.111 140.777 150.974 141.44 148.851 142.478C146.276 143.732 143.674 144.943 141.057 146.139C133.86 149.485 125.985 150.897 118.141 150.248C116.114 151.315 113.964 156.88 113.484 159.215C114.69 159.532 128.908 157.341 134.51 155.034Z" fill="#FFBBAB"/>
<path d="M344.261 159.518L332.303 159.734C331.32 159.712 330.337 159.799 329.371 159.994C328.412 160.224 327.522 160.657 326.632 160.96C325.192 161.415 323.681 161.566 322.185 161.402C320.69 161.239 319.24 160.765 317.92 160.008C315.92 158.84 314.222 157.01 312.003 156.361C311.553 156.296 311.128 156.107 310.77 155.813C310.561 155.539 310.447 155.198 310.447 154.847C310.447 154.496 310.561 154.155 310.77 153.881C311.192 153.33 311.766 152.932 312.414 152.742C314.766 152.056 317.258 152.117 319.578 152.915C321.038 153.27 322.531 153.453 324.029 153.463C327.714 153.694 331.399 153.809 335.097 153.896C342.919 154.113 350.67 152.285 357.657 148.576C359.917 148.763 363.917 153.059 365.204 155.02C364.232 155.784 350.301 159.403 344.261 159.518Z" fill="#FFBBAB"/>
<path d="M357.904 146.687C357.74 146.798 357.6 146.943 357.494 147.115C357.387 147.286 357.317 147.48 357.287 147.682C357.345 148.058 357.542 148.395 357.835 148.619L362.561 153.304C363.231 154.07 364.061 154.662 364.985 155.034C365.998 155.249 367.047 155.179 368.026 154.833C372.749 153.57 377.284 151.63 381.505 149.066C382.879 148.295 384.128 147.297 385.203 146.111C386.287 144.91 386.881 143.312 386.86 141.656C386.782 140.76 386.51 139.894 386.067 139.125C385.623 138.355 385.018 137.702 384.299 137.216C381.053 134.909 377.793 135.587 374.382 136.884C370.583 138.321 366.945 140.192 363.533 142.463C361.577 143.749 359.696 145.16 357.904 146.687Z" fill="#FC2F2F"/>
<path d="M125.771 150.364V297.152C125.775 299.311 126.591 301.38 128.042 302.907C129.492 304.434 131.459 305.293 133.51 305.297H341.48C343.532 305.293 345.498 304.434 346.948 302.907C348.399 301.38 349.216 299.311 349.219 297.152V150.364C349.221 149.293 349.022 148.233 348.634 147.244C348.246 146.255 347.676 145.356 346.957 144.6C346.238 143.843 345.384 143.243 344.444 142.834C343.504 142.426 342.497 142.216 341.48 142.218H133.51C132.493 142.216 131.486 142.426 130.546 142.834C129.606 143.243 128.753 143.843 128.034 144.6C127.315 145.356 126.745 146.255 126.356 147.244C125.968 148.233 125.769 149.293 125.771 150.364Z" fill="white"/>
<path d="M125.771 150.364V153.059H349.219V150.364C349.221 149.293 349.022 148.233 348.634 147.244C348.246 146.255 347.676 145.356 346.957 144.6C346.238 143.843 345.384 143.243 344.444 142.834C343.504 142.426 342.497 142.216 341.48 142.218H133.51C132.493 142.216 131.486 142.426 130.546 142.834C129.606 143.243 128.753 143.843 128.034 144.6C127.315 145.356 126.745 146.255 126.356 147.244C125.968 148.233 125.769 149.293 125.771 150.364Z" fill="#FC2F2F"/>
<path d="M399.736 186.145C399.736 186.145 403.763 196.467 408.338 196.77C412.913 197.073 450.431 193.512 450.431 193.512L451.513 188.798C451.513 188.798 427.83 184.775 422.748 186.131C420.134 186.856 417.487 187.443 414.817 187.889L411.42 185.237L399.736 186.145Z" fill="#EF9786"/>
<path d="M388.833 186.477C388.124 187.563 387.744 188.85 387.744 190.167C387.744 191.485 388.124 192.772 388.833 193.858C391.312 197.765 434.843 220.341 434.843 220.341L436.911 215.353C436.911 215.353 414.05 193.425 408.872 192.993C408.23 193.016 407.591 192.886 407.003 192.614C406.415 192.341 405.892 191.933 405.474 191.42C405.056 190.906 404.752 190.3 404.587 189.647C404.421 188.993 404.397 188.309 404.516 187.644L388.833 186.477Z" fill="#FFBBAB"/>
<path d="M374.19 164.174C374.19 164.174 373.82 168.932 367.793 171.21C361.766 173.487 336.22 171.21 336.22 171.21C333.577 171.21 330.96 173.401 328.372 172.781C325.783 172.161 323.55 169.292 324.468 166.683C324.738 166.031 325.136 165.448 325.637 164.97C326.138 164.493 326.729 164.133 327.372 163.915C328.666 163.484 330.014 163.261 331.371 163.252C333.718 162.935 336.103 163.186 338.343 163.987C339.23 164.521 340.145 165.003 341.083 165.429C342.184 165.712 343.322 165.809 344.453 165.717L358.328 165.27C360.999 165.184 364.177 164.794 365.41 162.3C365.834 161.45 366.026 160.369 366.78 159.878C367.301 159.619 367.891 159.558 368.451 159.705C371.094 160.138 372.286 162.344 374.19 164.174Z" fill="#FFBBAB"/>
<path d="M376.135 163.309C375.922 163.589 375.656 163.82 375.354 163.987C374.987 164.15 374.587 164.215 374.19 164.174C371.518 163.864 368.939 162.955 366.629 161.507C366.56 161.482 366.496 161.442 366.442 161.39C366.388 161.338 366.345 161.275 366.314 161.205C366.293 161.152 366.283 161.096 366.283 161.039C366.283 160.982 366.293 160.926 366.314 160.873L369.053 151.243C369.288 150.198 369.726 149.216 370.341 148.36C370.81 147.836 371.388 147.433 372.03 147.183C372.671 146.933 373.359 146.842 374.039 146.918C375.39 147.107 376.675 147.647 377.779 148.489C378.947 149.254 379.894 150.341 380.518 151.632C381.436 153.737 380.518 155.409 379.751 157.327C378.891 159.53 377.666 161.555 376.135 163.309Z" fill="#FC2F2F"/>
<path d="M356.164 132.689C356.203 133.169 356.203 133.651 356.164 134.131C356.074 134.58 356.147 135.048 356.37 135.442C356.671 135.803 357.191 135.803 357.616 135.976C358.986 136.495 359.273 138.571 360.588 139.22C361.021 139.413 361.489 139.502 361.958 139.479C362.673 139.549 363.394 139.45 364.067 139.188C364.74 138.926 365.349 138.508 365.848 137.965C366.095 137.648 366.424 137.23 366.766 137.418C367.108 137.605 366.985 137.677 367.067 137.836C368.026 140.041 370.807 142.002 372.875 140.157C374.083 138.842 374.897 137.182 375.217 135.385C375.765 133.381 374.834 131.276 373.985 129.489C373.078 127.517 372.034 125.618 370.862 123.808C369.012 121.055 366.478 118.503 363.314 118.042C362.008 117.907 360.69 118.097 359.467 118.598C358.243 119.099 357.15 119.896 356.274 120.925C355.394 121.94 354.8 123.193 354.561 124.544C354.367 125.245 354.316 125.982 354.411 126.706C354.588 127.596 354.836 128.469 355.15 129.316C355.509 130.25 355.793 131.215 356 132.199C356.123 132.343 356.15 132.516 356.164 132.689Z" fill="#FFBBAB"/>
<path d="M378.203 156.217C378.703 156.508 379.225 156.754 379.765 156.952C382.504 158.019 385.819 158.264 387.887 160.325C389.183 161.905 389.923 163.905 389.983 165.991C390.757 173.225 389.772 180.547 387.12 187.27C388.625 187.615 390.148 187.861 391.682 188.005C397.207 188.436 402.762 188.131 408.215 187.097C415.2 185.958 422.145 184.343 429.213 184.026C427.008 181.936 425.925 178.879 424.556 176.111C419.529 165.876 410.242 158.884 402.215 151.041C398.517 147.423 395.024 143.559 391.024 140.301C389.041 138.554 386.765 137.214 384.312 136.351C377.6 134.275 373.012 139.148 372.149 145.822C371.532 150.854 374.327 153.852 378.203 156.217Z" fill="#FC2F2F"/>
<path d="M353.945 124.154C354.192 124.861 355.219 127.369 356.233 126.057C356.315 125.956 356.37 125.827 356.493 125.783C356.616 125.74 356.794 125.783 356.931 125.956C358.428 127.189 360.28 127.847 362.181 127.821C364.082 127.795 365.917 127.086 367.383 125.812L367.725 126.317L370.341 130.137C370.04 129.373 371.136 128.696 371.834 129.07C372.158 129.306 372.429 129.612 372.63 129.968C372.831 130.323 372.956 130.721 372.999 131.132C373.257 132.578 373.666 133.99 374.218 135.342C374.499 136.021 374.914 136.629 375.436 137.126C375.958 137.623 376.575 137.998 377.245 138.225C378.615 138.585 380.08 138.066 381.354 138.484C383.368 139.09 384.34 141.368 385.546 143.184C388.449 147.509 393.764 149.513 398.75 149.484C399.904 149.504 401.055 149.364 402.174 149.066C403.51 148.679 404.745 147.98 405.788 147.022C406.831 146.064 407.656 144.87 408.201 143.53C408.358 143.122 408.486 142.703 408.585 142.276C408.967 140.642 408.888 138.926 408.358 137.338C407.828 135.751 406.869 134.36 405.599 133.338C404.153 132.558 402.777 131.641 401.489 130.599C400.528 129.212 399.689 127.735 398.983 126.187C398.076 124.936 396.939 123.889 395.64 123.109C394.341 122.329 392.907 121.831 391.422 121.646C388.456 121.302 385.475 121.124 382.491 121.113C380.842 121.122 379.227 120.621 377.847 119.671C376.478 118.561 375.724 116.701 374.409 115.461C373.247 114.487 371.888 113.806 370.437 113.472C366.629 112.391 362.424 112.03 358.863 113.803C357.611 114.416 356.506 115.315 355.627 116.435C354.747 117.555 354.117 118.867 353.781 120.276C353.474 121.558 353.531 122.906 353.945 124.154Z" fill="#FC682D"/>
<path d="M438.007 214.07C439.579 214.327 441.098 214.863 442.5 215.656C443.141 215.912 443.71 216.333 444.157 216.881C444.576 217.61 444.781 218.452 444.746 219.303C444.888 223.955 443.878 228.565 441.815 232.681C441.703 232.957 441.529 233.199 441.308 233.388C441.137 233.497 440.948 233.57 440.75 233.602C440.553 233.634 440.352 233.625 440.157 233.575C439.459 233.427 438.8 233.118 438.229 232.669C437.658 232.22 437.189 231.643 436.856 230.98C436.189 229.646 435.832 228.163 435.815 226.655C435.833 225.754 435.745 224.853 435.555 223.974C435.158 222.619 434.185 221.566 433.624 220.254C432.185 216.593 434.446 213.623 438.007 214.07Z" fill="#FC2F2F"/>
<path d="M448.691 187.515C450.181 186.932 451.758 186.634 453.348 186.635C454.031 186.537 454.727 186.616 455.375 186.866C456.073 187.296 456.636 187.932 456.991 188.697C459.235 192.702 460.448 197.253 460.512 201.902C460.541 202.206 460.498 202.513 460.388 202.796C460.185 203.157 459.856 203.421 459.471 203.531C458.786 203.758 458.062 203.821 457.351 203.716C456.64 203.611 455.961 203.341 455.361 202.926C454.182 202.084 453.206 200.963 452.512 199.653C452.113 198.856 451.626 198.11 451.06 197.433C450.088 196.438 448.718 195.992 447.663 195.141C444.76 192.719 445.321 188.985 448.691 187.515Z" fill="#FC2F2F"/>
<path d="M93.294 161.262C94.1651 162.645 95.5094 163.621 97.0471 163.987C98.5719 164.333 100.14 164.421 101.691 164.247C102.321 164.247 102.937 164.146 103.567 164.074C106.224 163.809 108.858 163.327 111.443 162.632C112.964 162.214 114.457 161.724 115.936 161.19C116.931 160.9 117.837 160.344 118.566 159.576C119.144 158.72 119.52 157.731 119.662 156.692C119.785 156.13 119.895 155.582 120.018 155.02L121.086 150.018C121.174 149.838 121.211 149.637 121.196 149.436C121.18 149.235 121.111 149.043 120.997 148.881C120.883 148.719 120.729 148.594 120.551 148.52C120.373 148.446 120.179 148.425 119.991 148.461C115.278 147.996 110.528 148.161 105.855 148.951C104.252 149.225 102.663 149.571 101.102 149.989C97.595 150.94 94.5268 152.295 93.0611 156.116C92.7283 156.936 92.5763 157.826 92.6167 158.717C92.657 159.608 92.8886 160.479 93.294 161.262Z" fill="#FC2F2F"/>
<path d="M79.1445 202.984C79.4002 203.493 79.7661 203.933 80.2129 204.267C84.1168 207.582 89.4451 208.592 94.4447 208.058C96.7664 207.811 99.0599 207.328 101.293 206.616C103.882 205.838 106.416 204.858 108.937 203.877C109.044 201.117 108.682 198.359 107.868 195.732C106.718 190.456 106.088 184.199 107.512 178.937L107.635 178.533C108.444 175.794 109.909 173.3 110.704 170.561C111.427 167.976 111.705 165.276 111.526 162.589C111.421 160.631 111.09 158.695 110.539 156.822C110.006 154.956 109.232 153.176 108.238 151.531C107.674 150.474 106.886 149.566 105.937 148.879H105.841C104.153 148.12 102.273 147.978 100.499 148.475C96.1843 149.167 91.8558 150.104 89.13 153.996C86.4042 157.889 85.6235 161.435 84.692 166.294C82.5141 177.827 79.6103 189.259 78.9665 201.052C78.886 201.702 78.9469 202.362 79.1445 202.984Z" fill="#FC2F2F"/>
<path d="M93.472 180.912C94.1319 181.398 94.7183 181.986 95.2116 182.656C95.5147 183.298 95.6784 184.002 95.691 184.718C96.1523 190.121 96.0926 195.56 95.513 200.951C95.3212 202.666 95.2116 204.742 96.5129 205.809C97.3287 206.353 98.2894 206.606 99.2524 206.53C99.9373 206.53 100.622 206.53 101.293 206.53C103.882 205.751 106.416 204.771 108.937 203.791C109.044 201.03 108.682 198.272 107.868 195.646C106.718 190.369 106.087 184.112 107.512 178.85L107.635 178.447C108.443 175.708 109.909 173.214 110.704 170.474C111.426 167.89 111.705 165.19 111.525 162.502C113.046 162.084 114.539 161.594 116.018 161.06C117.013 160.77 117.919 160.214 118.648 159.446C119.226 158.59 119.602 157.602 119.744 156.563C119.867 156 119.977 155.452 120.1 154.89L119.854 154.184C117.046 154.515 114.286 155.202 111.635 156.231C109.01 157.357 106.803 159.351 105.348 161.911L103.896 161.147C103.814 162.098 103.745 163.05 103.649 164.03C103.553 165.011 103.485 166.106 103.389 167.13C103.388 167.631 103.276 168.125 103.06 168.571C102.753 169.006 102.349 169.352 101.882 169.581C99.9236 170.748 97.7731 171.959 95.5404 171.383C93.3077 170.806 92.5817 169.004 91.4311 167.404C91.1084 169.152 90.9433 170.928 90.938 172.709C90.7599 175.736 91.3352 178.995 93.472 180.912Z" fill="url(#paint2_linear)"/>
<path d="M94.3213 171.613C94.2942 171.923 94.3303 172.235 94.4271 172.528C94.524 172.821 94.6794 173.09 94.883 173.315L100.8 180.912C101.117 181.368 101.506 181.763 101.951 182.08C102.46 182.341 103.015 182.488 103.581 182.512C107.813 182.844 111.936 181.071 115.785 179.225C118.852 177.511 122.061 176.097 125.374 175.001C127.689 174.353 130.168 174.223 132.565 173.704C135.181 173.372 138.044 175.145 140.523 174.28C143.003 173.415 144.92 170.201 143.715 167.735C143.375 167.118 142.913 166.584 142.36 166.172C141.807 165.759 141.176 165.476 140.51 165.342C139.155 165.073 137.77 165.02 136.4 165.184C134.031 165.169 131.689 165.722 129.551 166.798C128.051 167.753 126.445 168.513 124.771 169.062C122.756 169.723 120.701 170.243 118.621 170.619C114.422 171.229 110.271 172.154 106.197 173.387C106.099 173.435 105.991 173.461 105.882 173.461C105.773 173.461 105.666 173.435 105.567 173.387C105.394 173.243 105.278 173.038 105.238 172.81C104.595 170.258 102.211 165.241 99.0744 166.265C97.7322 166.777 96.5804 167.726 95.787 168.975C95.1108 169.723 94.609 170.626 94.3213 171.613Z" fill="#FFBBAB"/>
<path d="M92.0203 170.993C92.2815 171.222 92.578 171.403 92.8969 171.527C93.2837 171.628 93.6882 171.628 94.0749 171.527C96.6959 170.888 99.1541 169.658 101.28 167.923C101.403 167.836 101.54 167.735 101.567 167.591C101.572 167.476 101.549 167.362 101.499 167.26L97.7459 158.047C97.2117 156.75 96.609 155.496 96.0063 154.241C95.7596 153.597 95.3584 153.031 94.842 152.598C94.3063 152.304 93.706 152.164 93.1024 152.194C92.5567 152.168 92.0107 152.236 91.4861 152.396C90.558 152.851 89.7735 153.576 89.226 154.487C88.6969 155.125 88.2711 155.851 87.9658 156.635C87.7448 157.35 87.6519 158.103 87.6919 158.855C87.7993 161.288 88.3528 163.677 89.3219 165.89C89.9109 167.346 90.7053 169.811 92.0203 170.993Z" fill="#FC2F2F"/>
<path d="M113.211 129.964C113.936 131.838 114.252 133.886 114.991 135.731C115.184 136.154 115.331 136.599 115.43 137.057C115.472 137.289 115.466 137.528 115.412 137.757C115.358 137.986 115.256 138.2 115.114 138.383C114.676 138.845 113.895 138.859 113.539 139.393C113.384 139.658 113.294 139.961 113.279 140.272L112.923 142.925C112.906 143.252 112.822 143.572 112.676 143.862C112.459 144.16 112.171 144.394 111.841 144.539C110.287 145.348 108.575 145.763 106.841 145.75C106.462 146.718 106.418 147.794 106.718 148.792C106.832 149.665 106.809 150.551 106.649 151.416C106.636 151.543 106.588 151.662 106.512 151.762C106.406 151.845 106.275 151.886 106.143 151.877C105.519 151.872 104.9 151.765 104.307 151.56L99.7732 150.248C99.3655 150.189 98.9737 150.042 98.6225 149.817C98.2713 149.591 97.9682 149.291 97.7322 148.936C97.5572 148.433 97.4646 147.901 97.4583 147.365C97.2485 146.38 96.9598 145.415 96.5954 144.482C96.2184 142.987 96.0522 141.443 96.1022 139.897C96.0404 137.833 96.1091 135.767 96.3077 133.713C96.4512 131.264 97.3837 128.94 98.9513 127.124C100.331 125.828 102.09 125.065 103.937 124.962C105.943 124.726 107.972 125.06 109.814 125.928C111.385 126.78 112.597 128.22 113.211 129.964Z" fill="#FFBBAB"/>
<path d="M115.06 121.805C115.384 122.937 115.336 124.151 114.923 125.25C114.433 126.603 113.567 127.77 112.438 128.598C111.31 129.426 109.97 129.877 108.594 129.892C108.336 129.87 108.075 129.9 107.827 129.979C107.641 130.063 107.469 130.18 107.32 130.325L104.471 132.79C103.84 133.269 103.297 133.865 102.869 134.549C102.501 135.319 102.274 136.155 102.197 137.014C102.06 136.422 101.798 135.87 101.43 135.399C101.233 135.179 100.974 135.03 100.692 134.973C100.409 134.916 100.116 134.954 99.8552 135.082C99.5564 135.33 99.3522 135.683 99.2799 136.077C99.1173 136.826 99.1597 137.608 99.4022 138.333C99.6446 139.057 100.077 139.695 100.65 140.171C99.7593 140.387 99.3758 141.469 99.1429 142.391L98.1293 146.428C97.9056 146.391 97.6961 146.289 97.5243 146.134C97.3525 145.978 97.2253 145.776 97.1568 145.548C97.1568 145.765 96.8691 145.866 96.6911 145.75C96.5249 145.623 96.4043 145.44 96.3486 145.231C95.4172 142.622 94.5542 139.969 93.7598 137.317C92.8594 134.805 92.3954 132.144 92.39 129.46C92.3919 128.763 92.5368 128.074 92.8146 127.441C92.9568 127.128 93.1675 126.856 93.4295 126.645C93.6914 126.434 93.9971 126.292 94.3214 126.23C94.4407 126.221 94.557 126.186 94.6638 126.13C94.7215 126.069 94.7671 125.997 94.7977 125.918C94.8283 125.839 94.8433 125.754 94.8419 125.668C94.8994 124.727 95.0697 123.797 95.3487 122.9C95.6072 122.192 96.0006 121.547 96.5048 121.004C97.0089 120.462 97.6131 120.034 98.2802 119.746C98.9473 119.459 99.6632 119.318 100.384 119.332C101.105 119.346 101.815 119.516 102.471 119.83C102.666 119.963 102.902 120.009 103.129 119.959C103.27 119.89 103.388 119.78 103.471 119.642C104.255 118.723 105.313 118.112 106.471 117.912C107.616 117.71 108.779 117.652 109.937 117.739C110.531 117.716 111.125 117.804 111.69 117.999C112.512 118.33 112.69 119.166 113.334 119.642C114.13 120.13 114.74 120.895 115.06 121.805Z" fill="#FC682D"/>
<path d="M48.8591 254.652C48.4208 255.214 48.6263 256.094 48.8591 256.757L53.4067 271.361C53.5384 271.942 53.7859 272.488 54.1327 272.961C54.6827 273.455 55.3927 273.707 56.1149 273.664C56.837 273.621 57.5156 273.287 58.0091 272.73C58.9572 271.562 59.5323 270.109 59.6528 268.578C60.2284 264.94 60.27 261.23 59.7761 257.579C59.5569 255.978 58.9405 252.1 57.0366 251.625C55.1326 251.149 50.6124 254.003 48.8591 254.652Z" fill="#473F47"/>
<path d="M69.4192 273.61C69.4192 274.331 69.9808 274.907 70.5424 275.34L82.2127 284.581C82.641 284.97 83.1395 285.264 83.6783 285.446C84.0364 285.492 84.3997 285.463 84.7472 285.362C85.0948 285.26 85.4198 285.087 85.7036 284.852C85.9874 284.618 86.2245 284.327 86.4011 283.996C86.5777 283.664 86.6905 283.3 86.7329 282.923C86.8583 281.418 86.5428 279.908 85.8288 278.598C84.3197 275.266 82.3332 272.198 79.9389 269.501C78.8842 268.319 76.268 265.508 74.4599 266.243C72.6518 266.978 70.5013 272.01 69.4192 273.61Z" fill="#473F47"/>
<path d="M341.658 150.19C340.085 150.19 338.809 148.848 338.809 147.192C338.809 145.536 340.085 144.193 341.658 144.193C343.232 144.193 344.507 145.536 344.507 147.192C344.507 148.848 343.232 150.19 341.658 150.19Z" fill="white"/>
<path d="M333.892 150.19C332.318 150.19 331.043 148.848 331.043 147.192C331.043 145.536 332.318 144.193 333.892 144.193C335.465 144.193 336.741 145.536 336.741 147.192C336.741 148.848 335.465 150.19 333.892 150.19Z" fill="white"/>
<path d="M326.139 150.19C324.565 150.19 323.29 148.848 323.29 147.192C323.29 145.536 324.565 144.193 326.139 144.193C327.712 144.193 328.988 145.536 328.988 147.192C328.988 148.848 327.712 150.19 326.139 150.19Z" fill="white"/>
<path d="M182.328 358.58H307.675V368.326H182.328V358.58Z" fill="#FC2F2F"/>
<path d="M387.162 187.27C388.666 187.615 390.189 187.861 391.723 188.005L401.667 187.644C405.434 187.5 409.379 187.298 412.625 185.266C408.516 183.637 405.996 179.182 404.749 174.742C403.503 170.301 403.174 165.587 401.709 161.219C401.334 159.736 400.512 158.421 399.366 157.471C398.325 156.886 397.185 156.524 396.01 156.404C391.274 155.378 386.915 152.947 383.45 149.398C383.82 149.772 380.984 154.602 380.71 155.164C380.436 155.726 380.039 156.375 379.792 156.923C382.532 157.99 385.847 158.235 387.915 160.296C389.21 161.876 389.95 163.876 390.011 165.962C390.794 173.204 389.813 180.536 387.162 187.27Z" fill="url(#paint3_linear)"/>
<path d="M370.902 142.968C370.745 142.884 370.572 142.841 370.395 142.841C370.219 142.841 370.046 142.884 369.889 142.968C366.319 144.513 362.913 146.445 359.725 148.734C359.537 148.842 359.392 149.015 359.314 149.225C359.246 149.542 359.479 149.83 359.711 150.046C360.972 151.301 362.259 152.512 363.588 153.679C365.848 155.669 367.492 155.755 368.505 152.814C368.889 151.762 371.861 143.674 370.902 142.968Z" fill="url(#paint4_linear)"/>
<path opacity="0.28" d="M153.783 168.687H230.146V222.417H153.783V168.687Z" fill="#FC2F2F"/>
<path opacity="0.18" d="M153.782 237.612H323.29V283.067H153.782V237.612Z" fill="#FC2F2F"/>
<path d="M370.341 130.137C370.04 129.373 371.136 128.696 371.834 129.07C372.157 129.306 372.429 129.612 372.63 129.968C372.831 130.323 372.956 130.72 372.998 131.132C373.257 132.578 373.666 133.99 374.218 135.342C374.499 136.021 374.914 136.629 375.436 137.126C375.958 137.623 376.575 137.998 377.245 138.225C378.614 138.585 380.08 138.066 381.354 138.484C383.367 139.09 384.34 141.368 385.545 143.184C388.449 147.509 393.764 149.513 398.75 149.484C399.904 149.504 401.055 149.364 402.174 149.066C403.509 148.679 404.745 147.98 405.788 147.022C406.831 146.064 407.656 144.87 408.201 143.53C405.699 144.179 403.08 144.135 400.599 143.4L400.352 142.29C392.791 142.146 387.408 133.467 379.888 132.761C380.131 132.354 380.46 132.012 380.85 131.761C381.24 131.511 381.68 131.36 382.135 131.319C378.866 128.261 374.828 126.258 370.505 125.553C370 125.464 369.483 125.495 368.99 125.642C368.498 125.789 368.042 126.049 367.656 126.403L370.341 130.137Z" fill="url(#paint5_linear)"/>
</g>
<defs>
<linearGradient id="paint0_linear" x1="244.94" y1="185.871" x2="243.225" y2="367.719" gradientUnits="userSpaceOnUse">
<stop/>
<stop offset="1" stop-opacity="0"/>
</linearGradient>
<linearGradient id="paint1_linear" x1="-65938.5" y1="115763" x2="-66164.9" y2="9274.13" gradientUnits="userSpaceOnUse">
<stop/>
<stop offset="1" stop-opacity="0"/>
</linearGradient>
<linearGradient id="paint2_linear" x1="-7092.19" y1="12445" x2="-11382.9" y2="9318.94" gradientUnits="userSpaceOnUse">
<stop/>
<stop offset="1" stop-opacity="0"/>
</linearGradient>
<linearGradient id="paint3_linear" x1="-5325.94" y1="7747.69" x2="-2386.56" y2="5569.16" gradientUnits="userSpaceOnUse">
<stop/>
<stop offset="1" stop-opacity="0"/>
</linearGradient>
<linearGradient id="paint4_linear" x1="-866.717" y1="1844.71" x2="-1170.38" y2="1628.32" gradientUnits="userSpaceOnUse">
<stop/>
<stop offset="1" stop-opacity="0"/>
</linearGradient>
<linearGradient id="paint5_linear" x1="-4546.78" y1="3412.34" x2="-4368.83" y2="2716.36" gradientUnits="userSpaceOnUse">
<stop/>
<stop offset="1" stop-opacity="0"/>
</linearGradient>
<clipPath id="clip0">
<rect width="527" height="397" fill="white" transform="matrix(-1 0 0 1 527 0)"/>
</clipPath>
</defs>
</svg>
