<svg width="125" height="24" viewBox="0 0 125 24" fill="none" xmlns="http://www.w3.org/2000/svg">
<path d="M8.816 14.2L5.808 17.336V23H0.656V0.599998H5.808V11.064L15.728 0.599998H21.488L12.208 10.584L22.032 23H15.984L8.816 14.2ZM34.379 23.384C32.0537 23.384 29.9523 22.8827 28.075 21.88C26.219 20.8773 24.7577 19.5013 23.691 17.752C22.6457 15.9813 22.123 13.9973 22.123 11.8C22.123 9.60267 22.6457 7.62933 23.691 5.88C24.7577 4.10933 26.219 2.72267 28.075 1.72C29.9523 0.717333 32.0537 0.216 34.379 0.216C36.7043 0.216 38.795 0.717333 40.651 1.72C42.507 2.72267 43.9683 4.10933 45.035 5.88C46.1017 7.62933 46.635 9.60267 46.635 11.8C46.635 13.9973 46.1017 15.9813 45.035 17.752C43.9683 19.5013 42.507 20.8773 40.651 21.88C38.795 22.8827 36.7043 23.384 34.379 23.384ZM34.379 18.968C35.7017 18.968 36.8963 18.6693 37.963 18.072C39.0297 17.4533 39.8617 16.6 40.459 15.512C41.0777 14.424 41.387 13.1867 41.387 11.8C41.387 10.4133 41.0777 9.176 40.459 8.088C39.8617 7 39.0297 6.15733 37.963 5.56C36.8963 4.94133 35.7017 4.632 34.379 4.632C33.0563 4.632 31.8617 4.94133 30.795 5.56C29.7283 6.15733 28.8857 7 28.267 8.088C27.6697 9.176 27.371 10.4133 27.371 11.8C27.371 13.1867 27.6697 14.424 28.267 15.512C28.8857 16.6 29.7283 17.4533 30.795 18.072C31.8617 18.6693 33.0563 18.968 34.379 18.968ZM66.979 11.352C68.259 11.7573 69.2617 12.44 69.987 13.4C70.7123 14.3387 71.075 15.5013 71.075 16.888C71.075 18.8507 70.307 20.3653 68.771 21.432C67.2563 22.4773 65.0377 23 62.115 23H50.531V0.599998H61.475C64.2057 0.599998 66.2963 1.12267 67.747 2.168C69.219 3.21333 69.955 4.632 69.955 6.424C69.955 7.512 69.6883 8.48267 69.155 9.336C68.643 10.1893 67.9177 10.8613 66.979 11.352ZM55.683 4.504V9.784H60.835C62.115 9.784 63.0857 9.56 63.747 9.112C64.4083 8.664 64.739 8.00267 64.739 7.128C64.739 6.25333 64.4083 5.60267 63.747 5.176C63.0857 4.728 62.115 4.504 60.835 4.504H55.683ZM61.731 19.096C63.0963 19.096 64.1203 18.872 64.803 18.424C65.507 17.976 65.859 17.2827 65.859 16.344C65.859 14.488 64.483 13.56 61.731 13.56H55.683V19.096H61.731ZM89.7518 18.2H79.3518L77.3678 23H72.0557L82.0398 0.599998H87.1598L97.1758 23H91.7358L89.7518 18.2ZM88.1198 14.264L84.5678 5.688L81.0158 14.264H88.1198ZM119.884 23L119.852 9.56L113.26 20.632H110.924L104.364 9.848V23H99.4998V0.599998H103.788L112.172 14.52L120.428 0.599998H124.684L124.748 23H119.884Z" fill="white"/>
</svg>
